# xmcd
#
# Track frame offsets: 
#        150
#        19036
#        38931
#        56152
#        73947
#        90396
#        108012
#        128532
#        146063
#        165098
#
# Disc length: 2444 seconds
#
# Revision: 1
# Processed by: cddbd v1.5.2PL0 Copyright (c) Steve Scherf et al.
# Submitted via: ExactAudioCopyFreeDBPlugin 1.0
#
DISCID=7b098a0a
DTITLE=F.U. - Keista diena
DYEAR=2001
DGENRE=Pop
TTITLE0=Keista diena (original)
TTITLE1=Reikia man daugiau
TTITLE2=Ten toli
TTITLE3=Diskoteka
TTITLE4=Leisk man
TTITLE5=Ar zinai
TTITLE6=Liudesys
TTITLE7=Kaip dabar
TTITLE8=Angelas
TTITLE9=Keista diena (akustine versija)
EXTD=
EXTT0=
EXTT1=
EXTT2=
EXTT3=
EXTT4=
EXTT5=
EXTT6=
EXTT7=
EXTT8=
EXTT9=
PLAYORDER=
